<?xml version="1.0" encoding="UTF-8" standalone="no"?>
<!-- Created with Inkscape (http://www.inkscape.org/) -->

<svg
   xmlns:dc="http://purl.org/dc/elements/1.1/"
   xmlns:cc="http://creativecommons.org/ns#"
   xmlns:rdf="http://www.w3.org/1999/02/22-rdf-syntax-ns#"
   xmlns:svg="http://www.w3.org/2000/svg"
   xmlns="http://www.w3.org/2000/svg"
   xmlns:sodipodi="http://sodipodi.sourceforge.net/DTD/sodipodi-0.dtd"
   xmlns:inkscape="http://www.inkscape.org/namespaces/inkscape"
   width="856.79626"
   height="856.79626"
   id="svg2"
   version="1.1"
   inkscape:version="0.48.4 r9939"
   sodipodi:docname="smallgroup.svg"
   inkscape:export-filename="C:\Users\EAPhilippines\Dropbox\txt\smallgroup.png"
   inkscape:export-xdpi="100"
   inkscape:export-ydpi="100">
  <defs
     id="defs4" />
  <sodipodi:namedview
     id="base"
     pagecolor="#ffffff"
     bordercolor="#666666"
     borderopacity="1.0"
     inkscape:pageopacity="0.0"
     inkscape:pageshadow="2"
     inkscape:zoom="0.57073078"
     inkscape:cx="200.61998"
     inkscape:cy="428.39813"
     inkscape:document-units="cm"
     inkscape:current-layer="layer1"
     showgrid="false"
     inkscape:window-width="1152"
     inkscape:window-height="789"
     inkscape:window-x="-9"
     inkscape:window-y="-9"
     inkscape:window-maximized="1"
     units="cm"
     fit-margin-top="0"
     fit-margin-left="0"
     fit-margin-right="0"
     fit-margin-bottom="0" />
  <metadata
     id="metadata7">
    <rdf:RDF>
      <cc:Work
         rdf:about="">
        <dc:format>image/svg+xml</dc:format>
        <dc:type
           rdf:resource="http://purl.org/dc/dcmitype/StillImage" />
        <dc:title />
      </cc:Work>
    </rdf:RDF>
  </metadata>
  <g
     inkscape:label="Layer 1"
     inkscape:groupmode="layer"
     id="layer1"
     transform="translate(-649.54504,-470.90976)">
    <rect
       style="fill:#ffffff;fill-opacity:1;fill-rule:nonzero;stroke:none"
       id="rect4228"
       width="856.79626"
       height="856.79626"
       x="653.04932"
       y="470.8053" />
    <g
       id="g3489"
       transform="translate(3.5042263,-0.10445482)">
      <path
         inkscape:connector-curvature="0"
         style="fill:#ffffff;fill-opacity:1;fill-rule:nonzero;stroke:none"
         d="m 1077.9432,603.15167 c -163.569,0 -296.1581,132.61402 -296.1581,296.17272 0,163.55891 132.5891,296.13971 296.1581,296.13971 163.569,0 296.1581,-132.5808 296.1581,-296.13971 0,-163.5587 -132.5891,-296.17272 -296.1581,-296.17272 z"
         id="path4250" />
      <g
         style="fill:#c87137"
         id="g3469">
        <g
           style="fill:#c87137"
           id="g3199"
           transform="matrix(-0.70710678,0.70710678,-0.70710678,-0.70710678,2769.3359,136.53861)">
          <rect
             ry="10.365568"
             y="486.75122"
             x="1684.3656"
             height="61.003582"
             width="24.894016"
             id="rect3201"
             style="fill:#c87137;fill-opacity:1;fill-rule:nonzero;stroke:none" />
          <rect
             style="fill:#c87137;fill-opacity:1;fill-rule:nonzero;stroke:none"
             id="rect3203"
             width="24.894016"
             height="61.003582"
             x="1761.3749"
             y="486.75122"
             ry="10.365568" />
          <path
             style="fill:#c87137;fill-opacity:1;fill-rule:nonzero;stroke:none"
             d="m 1604.6693,416.35001 79.6865,79.68651 101.9819,2e-5 79.6865,-79.68655 c -51.9333,-51.84571 -211.3253,-50.02963 -261.3549,2e-5 z"
             id="path3205"
             inkscape:connector-curvature="0"
             sodipodi:nodetypes="ccccc" />
        </g>
        <path
           style="fill:#c87137;fill-opacity:1;fill-rule:nonzero;stroke:none"
           d="m 1332.4747,911.71436 c -2.9571,61.02471 -27.7425,121.17994 -74.3438,167.78124 -46.6012,46.6013 -106.7631,71.3868 -167.7812,74.3438 l 0,23.6562 c 67.0702,-2.9676 133.2798,-30.0298 184.5,-81.25 51.2201,-51.2202 78.3062,-117.45028 81.2812,-184.53124 l -23.6562,0 z"
           id="path3207"
           inkscape:connector-curvature="0" />
        <path
           transform="matrix(1.6002703,-1.6002703,-1.6002703,-1.6002703,1358.0423,1773.2312)"
           d="m 215.12435,240.90979 c 0,16.68221 -13.5236,30.20582 -30.20582,30.20582 -16.68221,0 -30.20581,-13.52361 -30.20581,-30.20582 0,-16.68221 13.5236,-30.20582 30.20581,-30.20582 16.68222,0 30.20582,13.52361 30.20582,30.20582 z"
           sodipodi:ry="30.205816"
           sodipodi:rx="30.205816"
           sodipodi:cy="240.90979"
           sodipodi:cx="184.91853"
           id="path3209"
           style="fill:#c87137;fill-opacity:1;fill-rule:nonzero;stroke:#ffffff;stroke-width:7.34131765;stroke-linecap:square;stroke-linejoin:round;stroke-miterlimit:4;stroke-opacity:1;stroke-dasharray:none;stroke-dashoffset:0"
           sodipodi:type="arc" />
      </g>
      <g
         style="fill:#ffd42a"
         id="g3461">
        <path
           style="fill:#ffd42a;fill-opacity:1;fill-rule:nonzero;stroke:none"
           d="m 1090.3497,621.08936 0,23.6875 c 61.0181,2.95699 121.1799,27.7424 167.7812,74.34375 46.6013,46.60128 71.3867,106.75654 74.3438,167.78125 l 23.6562,0 c -2.9705,-67.08993 -30.0574,-133.30743 -81.2812,-184.53125 -51.2171,-51.21705 -117.4254,-78.30923 -184.5,-81.28125 z"
           id="path3449"
           inkscape:connector-curvature="0" />
        <g
           style="fill:#ffd42a"
           transform="matrix(-0.70710678,-0.70710678,-0.70710678,0.70710678,2769.3359,1662.0772)"
           id="g3213">
          <rect
             style="fill:#ffd42a;fill-opacity:1;fill-rule:nonzero;stroke:none"
             id="rect3215"
             width="24.894016"
             height="61.003582"
             x="1684.3656"
             y="486.75122"
             ry="10.365568" />
          <rect
             ry="10.365568"
             y="486.75122"
             x="1761.3749"
             height="61.003582"
             width="24.894016"
             id="rect3217"
             style="fill:#ffd42a;fill-opacity:1;fill-rule:nonzero;stroke:none" />
          <path
             sodipodi:nodetypes="ccccc"
             inkscape:connector-curvature="0"
             id="path3219"
             d="m 1604.6693,416.35001 79.6865,79.68651 101.9819,2e-5 79.6865,-79.68655 c -51.9333,-51.84571 -211.3253,-50.02963 -261.3549,2e-5 z"
             style="fill:#ffd42a;fill-opacity:1;fill-rule:nonzero;stroke:none" />
        </g>
        <path
           sodipodi:type="arc"
           style="fill:#ffd42a;fill-opacity:1;fill-rule:nonzero;stroke:#ffffff;stroke-width:7.34131765;stroke-linecap:square;stroke-linejoin:round;stroke-miterlimit:4;stroke-opacity:1;stroke-dasharray:none;stroke-dashoffset:0"
           id="path3223"
           sodipodi:cx="184.91853"
           sodipodi:cy="240.90979"
           sodipodi:rx="30.205816"
           sodipodi:ry="30.205816"
           d="m 215.12435,240.90979 c 0,16.68221 -13.5236,30.20582 -30.20582,30.20582 -16.68221,0 -30.20581,-13.52361 -30.20581,-30.20582 0,-16.68221 13.5236,-30.20582 30.20581,-30.20582 16.68222,0 30.20582,13.52361 30.20582,30.20582 z"
           transform="matrix(1.6002703,1.6002703,-1.6002703,1.6002703,1358.0423,25.384567)" />
      </g>
      <g
         style="fill:#ff7f2a"
         id="g3477">
        <path
           style="fill:#ff7f2a;fill-opacity:1;fill-rule:nonzero;stroke:none"
           d="m 799.75592,911.71436 c 2.97053,67.07955 30.05743,133.27624 81.28125,184.50004 51.22382,51.2238 117.42086,78.3033 184.50003,81.2812 l 0,-23.6562 c -61.0181,-2.957 -121.17997,-27.7425 -167.78128,-74.3438 -46.60107,-46.6011 -71.38653,-106.76717 -74.34375,-167.78124 l -23.65625,0 z"
           id="path3447"
           inkscape:connector-curvature="0" />
        <g
           style="fill:#ff7f2a"
           transform="matrix(-0.70710678,-0.70710678,0.70710678,-0.70710678,1840.7235,2590.6896)"
           id="g3255">
          <rect
             style="fill:#ff7f2a;fill-opacity:1;fill-rule:nonzero;stroke:none"
             id="rect3257"
             width="24.894016"
             height="61.003582"
             x="1684.3656"
             y="486.75122"
             ry="10.365568" />
          <rect
             ry="10.365568"
             y="486.75122"
             x="1761.3749"
             height="61.003582"
             width="24.894016"
             id="rect3259"
             style="fill:#ff7f2a;fill-opacity:1;fill-rule:nonzero;stroke:none" />
          <path
             sodipodi:nodetypes="ccccc"
             inkscape:connector-curvature="0"
             id="path3261"
             d="m 1604.6693,416.35001 79.6865,79.68651 101.9819,2e-5 79.6865,-79.68655 c -51.9333,-51.84571 -211.3253,-50.02963 -261.3549,2e-5 z"
             style="fill:#ff7f2a;fill-opacity:1;fill-rule:nonzero;stroke:none" />
        </g>
        <path
           sodipodi:type="arc"
           style="fill:#ff7f2a;fill-opacity:1;fill-rule:nonzero;stroke:#ffffff;stroke-width:7.34131765;stroke-linecap:square;stroke-linejoin:round;stroke-miterlimit:4;stroke-opacity:1;stroke-dasharray:none;stroke-dashoffset:0"
           id="path3265"
           sodipodi:cx="184.91853"
           sodipodi:cy="240.90979"
           sodipodi:rx="30.205816"
           sodipodi:ry="30.205816"
           d="m 215.12435,240.90979 c 0,16.68221 -13.5236,30.20582 -30.20582,30.20582 -16.68221,0 -30.20581,-13.52361 -30.20581,-30.20582 0,-16.68221 13.5236,-30.20582 30.20581,-30.20582 16.68222,0 30.20582,13.52361 30.20582,30.20582 z"
           transform="matrix(1.6002703,1.6002703,1.6002703,-1.6002703,204.03089,1179.396)" />
      </g>
      <g
         style="fill:#6c5353"
         id="g3453">
        <path
           style="fill:#6c5353;fill-opacity:1;fill-rule:nonzero;stroke:none"
           d="m 1065.5372,621.08936 c -67.07437,2.98175 -133.27979,30.09225 -184.50003,81.3125 -51.22017,51.22017 -78.30628,117.42942 -81.28125,184.5 l 23.65625,0 c 2.95725,-61.01407 27.74275,-121.18025 74.34375,-167.78125 46.60131,-46.60131 106.76318,-71.38674 167.78128,-74.34375 l 0,-23.6875 z"
           id="path3451"
           inkscape:connector-curvature="0" />
        <g
           style="fill:#6c5353"
           id="g3269"
           transform="matrix(0.70710678,-0.70710678,0.70710678,0.70710678,-613.42739,1662.0772)">
          <rect
             ry="10.365568"
             y="486.75122"
             x="1684.3656"
             height="61.003582"
             width="24.894016"
             id="rect3271"
             style="fill:#6c5353;fill-opacity:1;fill-rule:nonzero;stroke:none" />
          <rect
             style="fill:#6c5353;fill-opacity:1;fill-rule:nonzero;stroke:none"
             id="rect3273"
             width="24.894016"
             height="61.003582"
             x="1761.3749"
             y="486.75122"
             ry="10.365568" />
          <path
             style="fill:#6c5353;fill-opacity:1;fill-rule:nonzero;stroke:none"
             d="m 1604.6693,416.35001 79.6865,79.68651 101.9819,2e-5 79.6865,-79.68655 c -51.9333,-51.84571 -211.3253,-50.02963 -261.3549,2e-5 z"
             id="path3275"
             inkscape:connector-curvature="0"
             sodipodi:nodetypes="ccccc" />
        </g>
        <path
           transform="matrix(-1.6002703,1.6002703,1.6002703,1.6002703,797.86619,25.384567)"
           d="m 215.12435,240.90979 c 0,16.68221 -13.5236,30.20582 -30.20582,30.20582 -16.68221,0 -30.20581,-13.52361 -30.20581,-30.20582 0,-16.68221 13.5236,-30.20582 30.20581,-30.20582 16.68222,0 30.20582,13.52361 30.20582,30.20582 z"
           sodipodi:ry="30.205816"
           sodipodi:rx="30.205816"
           sodipodi:cy="240.90979"
           sodipodi:cx="184.91853"
           id="path3279"
           style="fill:#6c5353;fill-opacity:1;fill-rule:nonzero;stroke:#ffffff;stroke-width:7.34131765;stroke-linecap:square;stroke-linejoin:round;stroke-miterlimit:4;stroke-opacity:1;stroke-dasharray:none;stroke-dashoffset:0"
           sodipodi:type="arc" />
      </g>
    </g>
    <text
       xml:space="preserve"
       style="font-size:34.64112473px;font-style:normal;font-variant:normal;font-weight:200;font-stretch:normal;line-height:125%;letter-spacing:0px;word-spacing:0px;fill:#000000;fill-opacity:1;stroke:none;font-family:Lato Hairline;-inkscape-font-specification:Lato Hairline Ultra-Light"
       x="810.59027"
       y="1273.5447"
       id="text3485"
       sodipodi:linespacing="125%"><tspan
         sodipodi:role="line"
         id="tspan3487"
         x="810.59027"
         y="1273.5447"
         style="font-size:48px;font-style:normal;font-variant:normal;font-weight:normal;font-stretch:normal;fill:#000000;font-family:Quicksand Book;-inkscape-font-specification:Quicksand Book">there I Am in the midst</tspan></text>
  </g>
</svg>
